<?xml version="1.0" encoding="utf-8"?><svg xmlns="http://www.w3.org/2000/svg" xmlns:xlink="http://www.w3.org/1999/xlink"><symbol fill="none" viewBox="0 0 24 24" id="arrow-bottom" xmlns="http://www.w3.org/2000/svg"><path d="M12 4v16m0 0 6-6m-6 6-6-6" stroke="currentColor" stroke-width="1.5" stroke-linecap="round" stroke-linejoin="round"/></symbol><symbol fill="none" viewBox="0 0 24 24" id="arrow-left" xmlns="http://www.w3.org/2000/svg"><path d="M20 12H4m0 0 6-6m-6 6 6 6" stroke="currentColor" stroke-width="1.5" stroke-linecap="round" stroke-linejoin="round"/></symbol><symbol fill="none" viewBox="0 0 24 24" id="arrow-right" xmlns="http://www.w3.org/2000/svg"><path d="M4 12h16m0 0-6-6m6 6-6 6" stroke="currentColor" stroke-width="1.5" stroke-linecap="round" stroke-linejoin="round"/></symbol><symbol fill="none" viewBox="0 0 24 24" id="arrow-top" xmlns="http://www.w3.org/2000/svg"><path d="M12 20V4m0 0 6 6m-6-6-6 6" stroke="currentColor" stroke-width="1.5" stroke-linecap="round" stroke-linejoin="round"/></symbol><symbol fill="none" viewBox="0 0 24 24" id="arrows-exchange" xmlns="http://www.w3.org/2000/svg"><path d="M4.993 12.984a1 1 0 0 0-.531 1.848L7.15 17.52a1 1 0 1 0 1.414-1.415l-1.121-1.12h7.55a1 1 0 0 0 0-2h-10ZM19.007 11.016a1 1 0 0 0 .531-1.848L16.85 6.48a1 1 0 0 0-1.414 1.415l1.121 1.12h-7.55a1 1 0 0 0 0 2h10Z" fill="currentColor"/></symbol><symbol fill="none" viewBox="0 0 24 24" id="calendar" xmlns="http://www.w3.org/2000/svg"><path d="M2 12c0-3.771 0-5.657 1.172-6.828C4.343 4 6.229 4 10 4h4c3.771 0 5.657 0 6.828 1.172C22 6.343 22 8.229 22 12v2c0 3.771 0 5.657-1.172 6.828C19.657 22 17.771 22 14 22h-4c-3.771 0-5.657 0-6.828-1.172C2 19.657 2 17.771 2 14v-2Z" stroke="currentColor" stroke-width="1.5"/><path d="M7 4V2.5M17 4V2.5M2.5 9h19" stroke="currentColor" stroke-width="1.5" stroke-linecap="round"/><path d="M18 17a1 1 0 1 1-2 0 1 1 0 0 1 2 0ZM18 13a1 1 0 1 1-2 0 1 1 0 0 1 2 0ZM13 17a1 1 0 1 1-2 0 1 1 0 0 1 2 0ZM13 13a1 1 0 1 1-2 0 1 1 0 0 1 2 0ZM8 17a1 1 0 1 1-2 0 1 1 0 0 1 2 0ZM8 13a1 1 0 1 1-2 0 1 1 0 0 1 2 0Z" fill="currentColor"/></symbol><symbol viewBox="0 0 576 512" fill="currentColor" id="card" xmlns="http://www.w3.org/2000/svg"><path d="M512 32H64C28.65 32 0 60.66 0 96v32h576V96c0-35.34-28.7-64-64-64zM0 416c0 35.34 28.65 64 64 64h448c35.35 0 64-28.66 64-64V224H0v192zm191.1-56c0-4.422 3.582-8 8-8h143.1c4.418 0 8 3.578 8 8l1.8 16a8 8 0 0 1-8 8H200c-4.4 0-8-3.6-8-8l-.9-16zm-128 0c0-4.422 3.582-8 8-8h80c4.418 0 8 3.578 8 8l.9 16c0 4.4-3.6 8-8 8H72c-4.42 0-8-3.6-8-8l-.9-16z"/></symbol><symbol fill="none" viewBox="0 0 24 24" id="check" xmlns="http://www.w3.org/2000/svg"><path d="m7 12.9 3.143 3.6L18 7.5" stroke="currentColor" stroke-width="1.5" stroke-linecap="round" stroke-linejoin="round"/></symbol><symbol fill="none" viewBox="0 0 24 24" id="check-read" xmlns="http://www.w3.org/2000/svg"><path d="m4 12.9 3.143 3.6L15 7.5M20 7.563l-8.571 9L11 16" stroke="currentColor" stroke-width="1.5" stroke-linecap="round" stroke-linejoin="round"/></symbol><symbol fill="none" viewBox="0 0 24 24" id="chevron-bottom" xmlns="http://www.w3.org/2000/svg"><path d="m19 9-7 6-7-6" stroke="currentColor" stroke-width="1.5" stroke-linecap="round" stroke-linejoin="round"/></symbol><symbol fill="none" viewBox="0 0 24 24" id="chevron-left" xmlns="http://www.w3.org/2000/svg"><path d="m15 5-6 7 6 7" stroke="currentColor" stroke-width="1.5" stroke-linecap="round" stroke-linejoin="round"/></symbol><symbol fill="none" viewBox="0 0 24 24" id="chevron-right" xmlns="http://www.w3.org/2000/svg"><path d="m9 5 6 7-6 7" stroke="currentColor" stroke-width="1.5" stroke-linecap="round" stroke-linejoin="round"/></symbol><symbol fill="none" viewBox="0 0 24 24" id="chevron-top" xmlns="http://www.w3.org/2000/svg"><path d="m19 15-7-6-7 6" stroke="currentColor" stroke-width="1.5" stroke-linecap="round" stroke-linejoin="round"/></symbol><symbol fill="none" viewBox="0 0 24 24" id="clear" xmlns="http://www.w3.org/2000/svg"><path fill-rule="evenodd" clip-rule="evenodd" d="M22 12c0 5.523-4.477 10-10 10S2 17.523 2 12 6.477 2 12 2s10 4.477 10 10ZM8.97 8.97a.75.75 0 0 1 1.06 0L12 10.94l1.97-1.97a.75.75 0 0 1 1.06 1.06L13.06 12l1.97 1.97a.75.75 0 0 1-1.06 1.06L12 13.06l-1.97 1.97a.75.75 0 0 1-1.06-1.06L10.94 12l-1.97-1.97a.75.75 0 0 1 0-1.06Z" fill="currentColor"/></symbol><symbol fill="none" viewBox="0 0 24 24" id="close" xmlns="http://www.w3.org/2000/svg"><path d="M18 6 6 18M6 6l12 12" stroke="currentColor" stroke-width="1.5" stroke-linecap="round"/></symbol><symbol viewBox="0 0 24 24" fill="none" id="currency-exchange" xmlns="http://www.w3.org/2000/svg"><path d="M17.757 7.193a7.5 7.5 0 0 0-13.108 6.303M19.3 10.274a7.5 7.5 0 0 1-13.186 6.375" stroke="currentColor" stroke-linecap="round"/><path d="M18.125 5.5v2h-2M7.875 16.5h-2v2" stroke="currentColor" stroke-linecap="round" stroke-linejoin="round"/><path d="M12 8v8" stroke="currentColor" stroke-linecap="round"/><path d="M13.81 10.152c-.12-.53-.803-1.12-1.804-1.12-1 0-1.77.65-1.77 1.47 0 1.864 3.711.906 3.711 3.07 0 .781-.94 1.444-1.94 1.444s-1.694-.615-1.899-1.274" stroke="currentColor" stroke-linecap="round" stroke-linejoin="round"/></symbol><symbol fill="none" viewBox="0 0 24 24" id="deal" xmlns="http://www.w3.org/2000/svg"><path d="M17.625 21a1.693 1.693 0 0 1 2.25 0A.676.676 0 0 0 21 20.495V3.505A.676.676 0 0 0 19.875 3c-.642.57-1.608.57-2.25 0a1.693 1.693 0 0 0-2.25 0c-.642.57-1.608.57-2.25 0a1.693 1.693 0 0 0-2.25 0c-.642.57-1.608.57-2.25 0a1.693 1.693 0 0 0-2.25 0c-.642.57-1.608.57-2.25 0A.676.676 0 0 0 3 3.505v16.99c0 .583.69.892 1.125.505a1.693 1.693 0 0 1 2.25 0c.642.57 1.608.57 2.25 0a1.693 1.693 0 0 1 2.25 0c.642.57 1.608.57 2.25 0a1.693 1.693 0 0 1 2.25 0c.642.57 1.608.57 2.25 0Z" stroke="currentColor" stroke-width="1.5"/><path d="M7.5 15.5h9M7.5 12h9M7.5 8.5h9" stroke="currentColor" stroke-width="1.5" stroke-linecap="round"/></symbol><symbol fill="none" viewBox="0 0 24 24" id="dispute" xmlns="http://www.w3.org/2000/svg"><path d="m18.66 8.286.368-.368c.342-.343.514-.514.617-.692.279-.483.279-1.079 0-1.562-.103-.178-.275-.35-.617-.692-.342-.342-.514-.514-.692-.616a1.562 1.562 0 0 0-1.562 0c-.178.102-.35.274-.692.616l-.368.368m-4.419 10.31-5.523 5.524c-.343.343-.514.514-.692.617-.484.279-1.079.279-1.562 0-.179-.103-.35-.274-.692-.617-.343-.342-.514-.514-.617-.692a1.562 1.562 0 0 1 0-1.562c.103-.178.274-.35.617-.692l5.523-5.523m-.736-.737 4.419 4.42c1.735 1.735 2.603 2.603 3.682 2.603 1.078 0 1.946-.868 3.682-2.604C21.132 14.651 22 13.783 22 12.705c0-1.079-.868-1.947-2.604-3.682l-4.419-4.42C13.242 2.869 12.374 2 11.295 2c-1.078 0-1.946.868-3.682 2.604C5.877 6.34 5.009 7.208 5.009 8.286c0 1.079.868 1.947 2.604 3.682Z" stroke="currentColor" stroke-width="1.5"/></symbol><symbol fill="none" viewBox="0 0 24 24" id="dots" xmlns="http://www.w3.org/2000/svg"><path d="M7 12a2 2 0 1 1-4 0 2 2 0 0 1 4 0ZM14 12a2 2 0 1 1-4 0 2 2 0 0 1 4 0ZM21 12a2 2 0 1 1-4 0 2 2 0 0 1 4 0Z" fill="currentColor"/></symbol><symbol fill="none" viewBox="0 0 24 24" id="edit" xmlns="http://www.w3.org/2000/svg"><path d="M4 22h16" stroke="currentColor" stroke-width="1.5" stroke-linecap="round"/><path d="m13.888 3.663.742-.742a3.146 3.146 0 1 1 4.449 4.45l-.742.74m-4.449-4.448s.093 1.576 1.483 2.966c1.39 1.39 2.966 1.483 2.966 1.483m-4.449-4.45L7.071 10.48c-.462.462-.693.692-.891.947a5.24 5.24 0 0 0-.599.969c-.139.291-.242.601-.449 1.22l-.875 2.626m14.08-8.13-6.817 6.817c-.462.462-.692.692-.947.891-.3.234-.625.435-.969.599-.291.139-.601.242-1.22.448l-2.626.876m0 0-.641.213a.848.848 0 0 1-1.073-1.073l.213-.641m1.501 1.5-1.5-1.5" stroke="currentColor" stroke-width="1.5"/></symbol><symbol fill="none" viewBox="0 0 24 24" id="export" xmlns="http://www.w3.org/2000/svg"><path d="M4 12a8 8 0 1 0 16 0" stroke="currentColor" stroke-width="1.5" stroke-linecap="round"/><path d="M12 14V4m0 0 3 3m-3-3L9 7" stroke="currentColor" stroke-width="1.5" stroke-linecap="round" stroke-linejoin="round"/></symbol><symbol fill="none" viewBox="0 0 24 24" id="eye-close" xmlns="http://www.w3.org/2000/svg"><path d="M2.69 6.705a.75.75 0 0 0-1.38.59l1.38-.59Zm12.897 6.624-.274-.698.274.698Zm-6.546.409a.75.75 0 1 0-1.257-.818l1.257.818Zm-2.67 1.353a.75.75 0 1 0 1.258.818l-1.258-.818ZM22.69 7.295a.75.75 0 0 0-1.378-.59l1.378.59ZM19 11.13l-.513-.547.513.547Zm.97 2.03a.75.75 0 1 0 1.06-1.06l-1.06 1.06ZM11.25 16.5a.75.75 0 0 0 1.5 0h-1.5Zm5.121-.591a.75.75 0 1 0 1.258-.818l-1.258.818Zm-10.84-4.25A.75.75 0 0 0 4.47 10.6l1.06 1.06Zm-2.561.44a.75.75 0 0 0 1.06 1.06L2.97 12.1ZM12 13.25c-3.224 0-5.539-1.605-7.075-3.26a13.637 13.637 0 0 1-1.702-2.28 11.707 11.707 0 0 1-.507-.946 3.795 3.795 0 0 1-.022-.049l-.004-.01-.001-.001L2 7a76 76 0 0 0-.69.296h.001l.001.003.003.006a3.837 3.837 0 0 0 .04.088 13.202 13.202 0 0 0 .58 1.084c.41.69 1.034 1.61 1.89 2.533C5.54 12.855 8.224 14.75 12 14.75v-1.5Zm3.313-.62c-.97.383-2.071.62-3.313.62v1.5c1.438 0 2.725-.276 3.862-.723l-.55-1.396Zm-7.529.29L6.371 15.09l1.258.818 1.412-2.171-1.257-.818ZM22 7l-.69-.296h.001v.002l-.007.013a8.017 8.017 0 0 1-.151.313 13.298 13.298 0 0 1-2.666 3.55l1.026 1.094a14.802 14.802 0 0 0 3.122-4.26l.039-.085.01-.024.004-.007v-.003h.001v-.001L22 7Zm-3.513 3.582c-.86.806-1.913 1.552-3.174 2.049l.549 1.396c1.473-.58 2.685-1.444 3.651-2.351l-1.026-1.094Zm-.017 1.077 1.5 1.5 1.06-1.06-1.5-1.5-1.06 1.06ZM11.25 14v2.5h1.5V14h-1.5Zm3.709-.262 1.412 2.171 1.258-.818-1.413-2.171-1.257.818Zm-10.49-3.14-1.5 1.5L4.03 13.16l1.5-1.5-1.06-1.06Z" fill="currentColor"/></symbol><symbol fill="none" viewBox="0 0 24 24" id="eye-open" xmlns="http://www.w3.org/2000/svg"><path d="M3.275 15.296C2.425 14.192 2 13.639 2 12c0-1.64.425-2.191 1.275-3.296C4.972 6.5 7.818 4 12 4c4.182 0 7.028 2.5 8.725 4.704C21.575 9.81 22 10.361 22 12c0 1.64-.425 2.191-1.275 3.296C19.028 17.5 16.182 20 12 20c-4.182 0-7.028-2.5-8.725-4.704Z" stroke="currentColor" stroke-width="1.5"/><path d="M15 12a3 3 0 1 1-6 0 3 3 0 0 1 6 0Z" stroke="currentColor" stroke-width="1.5"/></symbol><symbol fill="none" viewBox="0 0 24 24" id="filters" xmlns="http://www.w3.org/2000/svg"><path d="M9.5 14a3 3 0 1 1 0 6 3 3 0 0 1 0-6ZM14.5 4a3 3 0 1 0 0 6 3 3 0 0 0 0-6Z" stroke="currentColor" stroke-width="1.5"/><path d="M15 16.959h7M9 6.958H2M2 16.959h2M22 6.958h-2" stroke="currentColor" stroke-width="1.5" stroke-linecap="round"/></symbol><symbol fill="none" viewBox="0 0 24 24" id="help" xmlns="http://www.w3.org/2000/svg"><circle cx="12" cy="12" r="10" stroke="currentColor" stroke-width="1.5"/><circle cx="12" cy="12" r="4" stroke="currentColor" stroke-width="1.5"/><path d="m15 9 4-4M5 19l4-4M9 9 5 5M19 19l-4-4" stroke="currentColor" stroke-width="1.5"/></symbol><symbol fill="none" viewBox="0 0 24 24" id="history" xmlns="http://www.w3.org/2000/svg"><path d="M12 3a9 9 0 1 1-8.963 8.182.75.75 0 1 1 1.494.135 7.46 7.46 0 0 0 2.166 5.986A7.46 7.46 0 0 0 12 19.5 7.5 7.5 0 1 0 5.997 7.502h2.756a.75.75 0 0 1 .102 1.493l-.102.007H4.25a.75.75 0 0 1-.743-.648L3.5 8.252v-4.5a.75.75 0 0 1 1.493-.102L5 3.752l-.001 2.591A8.986 8.986 0 0 1 12 3Zm-.75 4a.75.75 0 0 1 .743.648L12 7.75V12h2.25a.75.75 0 0 1 .102 1.493l-.102.007h-3a.75.75 0 0 1-.743-.648l-.007-.102v-5a.75.75 0 0 1 .75-.75Z" fill="currentColor"/></symbol><symbol fill="none" viewBox="0 0 24 24" id="key" xmlns="http://www.w3.org/2000/svg"><path d="M15.68 14.587c3.49 0 6.32-2.818 6.32-6.294C22 4.818 19.17 2 15.68 2S9.362 4.818 9.362 8.293c0 1.61.735 2.781.735 2.781l-7.642 7.61c-.343.342-.823 1.23 0 2.05l.882.878c.343.293 1.205.703 1.91 0l1.03-1.024c1.028 1.024 2.204.439 2.645-.147.734-1.024-.147-2.049-.147-2.049l.294-.293c1.41 1.405 2.645.586 3.086 0 .735-1.024 0-2.049 0-2.049-.294-.585-.882-.585-.147-1.317l.882-.878c.705.585 2.155.732 2.792.732Z" stroke="currentColor" stroke-width="1.5" stroke-linejoin="round"/><path d="M17.885 8.294a2.2 2.2 0 0 1-2.204 2.195 2.2 2.2 0 0 1-2.205-2.195 2.2 2.2 0 0 1 2.205-2.196 2.2 2.2 0 0 1 2.204 2.196Z" stroke="currentColor" stroke-width="1.5"/></symbol><symbol fill="none" viewBox="0 0 24 24" id="link" xmlns="http://www.w3.org/2000/svg"><path d="m14.162 18.488-.72.72a6.117 6.117 0 1 1-8.65-8.65l.72-.72M9.837 14.162l4.325-4.325M9.837 5.512l.721-.72a6.117 6.117 0 1 1 8.65 8.65l-.72.72" stroke="currentColor" stroke-width="1.5" stroke-linecap="round"/></symbol><symbol fill="none" viewBox="0 0 24 24" id="logout" xmlns="http://www.w3.org/2000/svg"><path d="M14.998 7c-.012-2.175-.108-3.353-.877-4.121C13.243 2 11.828 2 9 2H8c-2.828 0-4.243 0-5.121.879C2 3.757 2 5.172 2 8v8c0 2.828 0 4.243.879 5.121C3.757 22 5.172 22 8 22h1c2.828 0 4.243 0 5.121-.879.769-.768.865-1.946.877-4.121" stroke="currentColor" stroke-width="1.5" stroke-linecap="round"/><path d="M9 12h13m0 0-3.5-3m3.5 3-3.5 3" stroke="currentColor" stroke-width="1.5" stroke-linecap="round" stroke-linejoin="round"/></symbol><symbol fill="none" viewBox="0 0 24 24" id="lots" xmlns="http://www.w3.org/2000/svg"><path d="m15.578 3.382 2 1.05c2.151 1.129 3.227 1.693 3.825 2.708C22 8.154 22 9.417 22 11.94v.117c0 2.525 0 3.788-.597 4.802-.598 1.015-1.674 1.58-3.825 2.709l-2 1.049C13.822 21.539 12.944 22 12 22s-1.822-.46-3.578-1.382l-2-1.05c-2.151-1.129-3.227-1.693-3.825-2.708C2 15.846 2 14.583 2 12.06v-.117c0-2.525 0-3.788.597-4.802.598-1.015 1.674-1.58 3.825-2.708l2-1.05C10.178 2.461 11.056 2 12 2s1.822.46 3.578 1.382ZM21 7.5l-4 2M12 12 3 7.5m9 4.5v9.5m0-9.5 4.5-2.25.5-.25m0 0V13m0-3.5-9.5-5" stroke="currentColor" stroke-width="1.5" stroke-linecap="round"/></symbol><symbol fill="none" viewBox="0 0 24 24" id="messages" xmlns="http://www.w3.org/2000/svg"><path d="M10 22a8 8 0 1 0-7.22-4.55c.172.36.232.766.13 1.15l-.328 1.227a1.3 1.3 0 0 0 1.591 1.591L5.4 21.09a1.671 1.671 0 0 1 1.15.13c1.045.5 2.215.78 3.451.78Z" stroke="currentColor" stroke-width="1.5"/><path d="M18 14.502a6.45 6.45 0 0 0 .198-.087c.362-.165.768-.227 1.153-.124l.476.127a1.3 1.3 0 0 0 1.591-1.591l-.127-.476c-.103-.385-.04-.791.125-1.153A6.5 6.5 0 1 0 9.5 5.996" stroke="currentColor" stroke-width="1.5"/><path d="M6.518 14h.01m3.481 0h.009m3.482 0h.009" stroke="currentColor" stroke-width="2" stroke-linecap="round" stroke-linejoin="round"/></symbol><symbol fill="none" viewBox="0 0 24 24" id="minus" xmlns="http://www.w3.org/2000/svg"><path d="M18 12H6" stroke="currentColor" stroke-width="1.5" stroke-linecap="round"/></symbol><symbol fill="none" viewBox="0 0 24 24" id="overview" xmlns="http://www.w3.org/2000/svg"><path d="M13.5 15.5c0-1.886 0-2.828.586-3.414.586-.586 1.528-.586 3.414-.586 1.886 0 2.828 0 3.414.586.586.586.586 1.528.586 3.414v2c0 1.886 0 2.828-.586 3.414-.586.586-1.528.586-3.414.586-1.886 0-2.828 0-3.414-.586-.586-.586-.586-1.528-.586-3.414v-2ZM2 8.5c0 1.886 0 2.828.586 3.414.586.586 1.528.586 3.414.586 1.886 0 2.828 0 3.414-.586C10 11.328 10 10.386 10 8.5v-2c0-1.886 0-2.828-.586-3.414C8.828 2.5 7.886 2.5 6 2.5c-1.886 0-2.828 0-3.414.586C2 3.672 2 4.614 2 6.5v2ZM13.5 5.5c0-.932 0-1.398.152-1.765a2 2 0 0 1 1.083-1.083c.367-.152.833-.152 1.765-.152h2c.932 0 1.398 0 1.765.152a2 2 0 0 1 1.083 1.083c.152.367.152.833.152 1.765 0 .932 0 1.398-.152 1.765a2 2 0 0 1-1.083 1.083c-.367.152-.833.152-1.765.152h-2c-.932 0-1.398 0-1.765-.152a2 2 0 0 1-1.083-1.083C13.5 6.898 13.5 6.432 13.5 5.5ZM2 18.5c0 .932 0 1.398.152 1.765a2 2 0 0 0 1.083 1.083c.367.152.833.152 1.765.152h2c.932 0 1.398 0 1.765-.152a2 2 0 0 0 1.083-1.083C10 19.898 10 19.432 10 18.5c0-.932 0-1.398-.152-1.765a2 2 0 0 0-1.083-1.083C8.398 15.5 7.932 15.5 7 15.5H5c-.932 0-1.398 0-1.765.152a2 2 0 0 0-1.083 1.083C2 17.102 2 17.568 2 18.5Z" stroke="currentColor" stroke-width="1.5"/></symbol><symbol fill="none" viewBox="0 0 24 24" id="paperclip" xmlns="http://www.w3.org/2000/svg"><path d="m7.918 17.807 7.89-7.553a2.253 2.253 0 0 0 0-3.284 2.503 2.503 0 0 0-3.43 0l-7.834 7.498a4.28 4.28 0 0 0 0 6.24c1.8 1.723 4.718 1.723 6.518 0l7.949-7.608c2.652-2.54 2.652-6.656 0-9.196-2.653-2.539-6.954-2.539-9.607 0L3 10.034" stroke="currentColor" stroke-width="1.5" stroke-linecap="round"/></symbol><symbol fill="none" viewBox="0 0 24 24" id="placeholder" xmlns="http://www.w3.org/2000/svg"><path d="M12 22c-4.714 0-7.071 0-8.536-1.465C2 19.072 2 16.714 2 12s0-7.071 1.464-8.536C4.93 2 7.286 2 12 2c4.714 0 7.071 0 8.535 1.464C22 4.93 22 7.286 22 12c0 4.714 0 7.071-1.465 8.535C19.072 22 16.714 22 12 22Z" stroke="currentColor" stroke-width="1.5"/><path d="M3.5 20.5 12 12l8.5-8.5M20.5 20.5 12 12 3.5 3.5" stroke="currentColor" stroke-width="1.5" stroke-linecap="round"/></symbol><symbol fill="currentColor" viewBox="0 0 128 128" id="plus" xmlns="http://www.w3.org/2000/svg"><path d="M64 0a64 64 0 1 0 64 64A64.07 64.07 0 0 0 64 0Zm0 122a58 58 0 1 1 58-58 58.07 58.07 0 0 1-58 58Z"/><path d="M90 61H67V38a3 3 0 0 0-6 0v23H38a3 3 0 0 0 0 6h23v23a3 3 0 0 0 6 0V67h23a3 3 0 0 0 0-6Z"/></symbol><symbol fill="currentColor" viewBox="0 0 24 23.75" id="recharge" xmlns="http://www.w3.org/2000/svg"><g data-name="Camada 2"><g data-name="Camada 1"><path d="M23.5 12.24h-1.11a7 7 0 0 0-4.12-4.51 4.74 4.74 0 0 0 1-2.94 4.79 4.79 0 0 0-9.58 0 4.74 4.74 0 0 0 1.13 3.06c-.58.16-1.44.43-2.53.83a16.54 16.54 0 0 0-3.04-3.17.5.5 0 0 0-.81.4V11A18.66 18.66 0 0 0 2 13.36H.5a.5.5 0 0 0-.5.5v3.73a.5.5 0 0 0 .3.46l6.95 3v1.22a1.5 1.5 0 0 0 1.49 1.49h1.53a1.5 1.5 0 0 0 1.49-1.49V21.2h3.85v1.05a1.5 1.5 0 0 0 1.49 1.49h1.53a1.5 1.5 0 0 0 1.49-1.49v-2.67a6.79 6.79 0 0 0 2.47-6.35h.89a.5.5 0 0 0 0-1ZM14.52 1a3.79 3.79 0 1 1-3.79 3.79A3.79 3.79 0 0 1 14.52 1Zm4.82 18-.07.08v.07a.5.5 0 0 0 0 .09.52.52 0 0 0 0 .1v2.9a.5.5 0 0 1-.49.49h-1.66a.5.5 0 0 1-.49-.49v-1.6a61.24 61.24 0 0 1 0-.18l-.05-.08-.06-.08h-.07l-.09-.05h-5.09a.5.5 0 0 0-.5.5v1.55a.5.5 0 0 1-.49.49H8.75a.5.5 0 0 1-.49-.49v-1.59a.49.49 0 0 0 0-.16.47.47 0 0 0-.05-.08.35.35 0 0 0-.21-.21l-7-3v-2.9h1.24a.5.5 0 0 0 .4-.19 17.11 17.11 0 0 1 2.62-2.56l.07-.08v-.07a.47.47 0 0 0 0-.09.48.48 0 0 0 0-.1V7A11.48 11.48 0 0 1 7.7 9.52a.49.49 0 0 0 .15.16.49.49 0 0 0 .22.07h.23c1.74-.64 3-1 3.41-1.09a4.7 4.7 0 0 0 5.79-.16A6 6 0 0 1 19.34 19Z"/><circle cx="5.38" cy="14.02" r=".96"/><path d="M17.88 10.11h-6.73a.5.5 0 0 0 0 1h6.73a.5.5 0 0 0 0-1Z"/></g></g></symbol><symbol fill="none" viewBox="0 0 24 24" id="rollup" xmlns="http://www.w3.org/2000/svg"><path d="M18 8H6m0 0 4.125-4M6 8l4.125 4M6 16h12m0 0-4.125-4M18 16l-4.125 4" stroke="currentColor" stroke-width="1.5" stroke-linecap="round" stroke-linejoin="round"/></symbol><symbol fill="none" viewBox="0 0 24 24" id="search" xmlns="http://www.w3.org/2000/svg"><circle cx="11.5" cy="11.5" r="9.5" stroke="currentColor" stroke-width="1.5"/><path d="M18.5 18.5 22 22" stroke="currentColor" stroke-width="1.5" stroke-linecap="round"/></symbol><symbol fill="none" viewBox="0 0 24 24" id="send" xmlns="http://www.w3.org/2000/svg"><path d="m18.636 15.67 1.716-5.15c1.5-4.498 2.25-6.747 1.062-7.934-1.187-1.187-3.436-.438-7.935 1.062L8.33 5.364C4.7 6.574 2.885 7.18 2.37 8.067a2.717 2.717 0 0 0 0 2.73c.515.888 2.33 1.493 5.96 2.704.45.15.957.042 1.294-.291l5.506-5.455a.79.79 0 1 1 1.11 1.122l-5.416 5.366a1.397 1.397 0 0 0-.324 1.427c1.21 3.63 1.816 5.446 2.703 5.962.844.49 1.887.49 2.731 0 .887-.516 1.492-2.331 2.703-5.962Z" fill="currentColor"/></symbol><symbol fill="none" viewBox="0 0 24 24" id="send-two" xmlns="http://www.w3.org/2000/svg"><path d="m18.636 15.67 1.716-5.15c1.5-4.498 2.25-6.747 1.062-7.934-1.187-1.187-3.436-.438-7.935 1.062L8.33 5.364C4.7 6.574 2.885 7.18 2.37 8.067a2.717 2.717 0 0 0 0 2.73c.515.888 2.33 1.493 5.96 2.704.45.15.957.042 1.294-.291l5.506-5.455a.79.79 0 1 1 1.11 1.122l-5.416 5.366a1.397 1.397 0 0 0-.324 1.427c1.21 3.63 1.816 5.446 2.703 5.962.844.49 1.887.49 2.731 0 .887-.516 1.492-2.331 2.703-5.962Z" fill="currentColor"/></symbol><symbol fill="currentColor" viewBox="0 0 50 50" id="settings" xmlns="http://www.w3.org/2000/svg"><path d="M22.205 2a1 1 0 0 0-.986.838l-.973 5.955c-1.17.34-2.285.8-3.336 1.371l-4.914-3.51a1 1 0 0 0-1.287.106l-3.89 3.886a1 1 0 0 0-.112 1.282l3.457 4.945a16.92 16.92 0 0 0-1.398 3.36l-5.93.986a1 1 0 0 0-.834.986v5.5a1 1 0 0 0 .824.986l5.934 1.051a16.82 16.82 0 0 0 1.394 3.36l-3.5 4.896a1 1 0 0 0 .106 1.287l3.888 3.89a1 1 0 0 0 1.28.114l4.955-3.469a16.85 16.85 0 0 0 3.346 1.381l.99 5.963a1 1 0 0 0 .986.836h5.5a1 1 0 0 0 .986-.826l1.061-5.986a16.85 16.85 0 0 0 3.33-1.397l4.988 3.5a1 1 0 0 0 1.282-.111l3.888-3.893a1 1 0 0 0 .104-1.29l-3.557-4.938a16.769 16.769 0 0 0 1.367-3.311l6.018-1.055a1 1 0 0 0 .826-.986v-5.5a1 1 0 0 0-.838-.986l-6.008-.983a16.885 16.885 0 0 0-1.37-3.306l3.507-4.998a1 1 0 0 0-.111-1.282l-3.89-3.888a1 1 0 0 0-1.292-.104l-4.924 3.541a16.76 16.76 0 0 0-3.334-1.389l-1.047-5.984A1 1 0 0 0 27.705 2h-5.5zm.852 2h3.808l.996 5.686a1 1 0 0 0 .743.798c1.462.365 2.836.943 4.09 1.702a1 1 0 0 0 1.1-.043l4.68-3.364 2.694 2.694-3.332 4.748a1 1 0 0 0-.04 1.09 14.926 14.926 0 0 1 1.686 4.07 1 1 0 0 0 .809.744l5.707.934v3.808l-5.719 1.004a1 1 0 0 0-.797.746 14.798 14.798 0 0 1-1.681 4.069 1 1 0 0 0 .045 1.1l3.379 4.689-2.694 2.695-4.74-3.326a1 1 0 0 0-1.094-.035 14.894 14.894 0 0 1-4.08 1.709 1 1 0 0 0-.74.794L26.867 46h-3.814l-.942-5.662a1 1 0 0 0-.746-.807 14.902 14.902 0 0 1-4.105-1.695 1 1 0 0 0-1.088.039l-4.703 3.295-2.696-2.7 3.325-4.646a1 1 0 0 0 .04-1.1 14.859 14.859 0 0 1-1.71-4.115 1 1 0 0 0-.795-.742l-5.631-1v-3.814l5.627-.936a1 1 0 0 0 .807-.744 14.953 14.953 0 0 1 1.71-4.117 1 1 0 0 0-.035-1.092L8.826 11.47l2.697-2.696 4.663 3.332a1 1 0 0 0 1.095.043 14.83 14.83 0 0 1 4.104-1.685 1 1 0 0 0 .748-.81L23.057 4zM25 17c-4.406 0-8 3.594-8 8 0 4.406 3.594 8 8 8 4.406 0 8-3.594 8-8 0-4.406-3.594-8-8-8zm0 2c3.326 0 6 2.674 6 6s-2.674 6-6 6-6-2.674-6-6 2.674-6 6-6z"/></symbol><symbol viewBox="0 0 18 17" id="star" xmlns="http://www.w3.org/2000/svg"><g fill="none" fill-rule="evenodd"><path d="M-3-3h24v24H-3z"/><path d="m9 14.27 4.15 2.51c.76.46 1.69-.22 1.49-1.08l-1.1-4.72 3.67-3.18c.67-.58.31-1.68-.57-1.75l-4.83-.41-1.89-4.46c-.34-.81-1.5-.81-1.84 0L6.19 5.63l-4.83.41C.48 6.11.12 7.21.79 7.79l3.67 3.18-1.1 4.72c-.2.86.73 1.54 1.49 1.08L9 14.27Z" fill="currentColor"/></g></symbol><symbol fill="none" viewBox="0 0 24 24" id="statistic" xmlns="http://www.w3.org/2000/svg"><path d="M22 22H2" stroke="currentColor" stroke-width="1.5" stroke-linecap="round"/><path d="M21 22v-7.5a1.5 1.5 0 0 0-1.5-1.5h-3a1.5 1.5 0 0 0-1.5 1.5V22M15 22V5c0-1.414 0-2.121-.44-2.56C14.122 2 13.415 2 12 2c-1.414 0-2.121 0-2.56.44C9 2.878 9 3.585 9 5v17M9 22V9.5A1.5 1.5 0 0 0 7.5 8h-3A1.5 1.5 0 0 0 3 9.5V22" stroke="currentColor" stroke-width="1.5"/></symbol><symbol fill="none" viewBox="0 0 56 56" id="ton" xmlns="http://www.w3.org/2000/svg"><path d="M28 56c15.464 0 28-12.536 28-28S43.464 0 28 0 0 12.536 0 28s12.536 28 28 28Z" fill="#0098EA"/><path d="M37.56 15.628H18.44c-3.516 0-5.745 3.792-3.976 6.858l11.801 20.455c.77 1.335 2.7 1.335 3.47 0l11.804-20.455c1.767-3.06-.462-6.858-3.975-6.858h-.003ZM26.255 36.807l-2.57-4.974-6.202-11.092c-.409-.71.096-1.62.953-1.62h7.816V36.81l.003-.002ZM38.51 20.739l-6.2 11.096-2.57 4.972V19.119h7.817c.857 0 1.362.91.953 1.62Z" fill="#fff"/></symbol><symbol fill="none" viewBox="0 0 24 24" id="transaction" xmlns="http://www.w3.org/2000/svg"><path d="M22 11c-.01-3.114-.108-4.765-1.172-5.828C19.657 4 17.771 4 14 4h-4C6.229 4 4.343 4 3.172 5.172 2 6.343 2 8.229 2 12c0 3.771 0 5.657 1.172 6.828C4.343 20 6.229 20 10 20h1.5" stroke="currentColor" stroke-width="1.5" stroke-linecap="round"/><path d="M15.5 14v6m0 0 2-2m-2 2-2-2m6.5 2v-6m0 0 2 2m-2-2-2 2" stroke="currentColor" stroke-width="1.5" stroke-linecap="round" stroke-linejoin="round"/><path d="M10 16H6M2 10h20" stroke="currentColor" stroke-width="1.5" stroke-linecap="round"/></symbol><symbol fill="none" viewBox="0 0 24 24" id="user" xmlns="http://www.w3.org/2000/svg"><circle cx="12" cy="6" r="4" stroke="currentColor" stroke-width="1.5"/><ellipse cx="12" cy="17" rx="7" ry="4" stroke="currentColor" stroke-width="1.5"/></symbol><symbol fill="none" viewBox="0 0 24 24" id="users" xmlns="http://www.w3.org/2000/svg"><circle cx="9" cy="6" r="4" stroke="currentColor" stroke-width="1.5"/><path d="M15 9a3 3 0 1 0 0-6" stroke="currentColor" stroke-width="1.5" stroke-linecap="round"/><ellipse cx="9" cy="17" rx="7" ry="4" stroke="currentColor" stroke-width="1.5"/><path d="M18 14c1.754.385 3 1.359 3 2.5 0 1.03-1.014 1.923-2.5 2.37" stroke="currentColor" stroke-width="1.5" stroke-linecap="round"/></symbol><symbol fill="currentColor" viewBox="0 0 48 48" id="wallet" xmlns="http://www.w3.org/2000/svg"><path clip-rule="evenodd" d="M47 40a5 5 0 0 1-5 5H6a5 5 0 0 1-5-5V11a4 4 0 0 1 4-4h20.171l8.099-2.934a.99.99 0 0 1 1.268.589L35.391 7H39a4 4 0 0 1 4 4v2a4 4 0 0 1 4 4v23zM5 9a2 2 0 0 0 0 4h3.634c.013-.005.021-.016.034-.021L19.65 9H5zm29.078.181-1.062-2.924h-.001L30.964 7h.003l-5.514 2h-.01l-11.039 4h21.062l-1.388-3.819zM41 11a2 2 0 0 0-2-2h-2.883l1.454 4H41v-2zm2 4H5c-.732 0-1.41-.211-2-.555V40a3 3 0 0 0 3 3h36a3 3 0 0 0 3-3v-7h-4a4 4 0 0 1 0-8h4v-8a2 2 0 0 0-2-2zm2 16v-4h-4a2 2 0 0 0 0 4h4zm-4-3h2v2h-2v-2z" fill-rule="evenodd"/></symbol><symbol fill="none" viewBox="0 0 24 24" id="warning" xmlns="http://www.w3.org/2000/svg"><path d="M5.312 10.761C8.23 5.587 9.689 3 12 3c2.31 0 3.77 2.587 6.688 7.761l.364.645c2.425 4.3 3.638 6.45 2.542 8.022S17.786 21 12.364 21h-.728c-5.422 0-8.134 0-9.23-1.572s.117-3.722 2.542-8.022l.364-.645Z" stroke="currentColor" stroke-width="1.5"/><path d="M12 8v5" stroke="currentColor" stroke-width="1.5" stroke-linecap="round"/><circle cx="12" cy="16" r="1" fill="currentColor"/></symbol></svg>